<svg xmlns="http://www.w3.org/2000/svg" viewBox="0 0 64 64" width="64" height="64">
  <defs>
    <linearGradient id="bg" x1="0" y1="0" x2="0" y2="1">
      <stop offset="0" stop-color="#16213b"></stop>
      <stop offset="1" stop-color="#0b1220"></stop>
    </linearGradient>
    <linearGradient id="gold" x1="0" y1="0" x2="0" y2="1">
      <stop offset="0" stop-color="#fcd34d"></stop>
      <stop offset="1" stop-color="#f59e0b"></stop>
    </linearGradient>
  </defs>
  <rect width="64" height="64" rx="15" fill="url(#bg)"></rect>
  <path d="M50 13 C50 34 81 44 81 62 C81 73 71 80 62 76 C58 74 55 71 54 67 C54 75 57 83 63 88 L37 88 C43 83 46 75 46 67 C45 71 42 74 38 76 C29 80 19 73 19 62 C19 44 50 34 50 13 Z" fill="url(#gold)" transform="translate(12 13) scale(0.4)"></path>
</svg>
